<svg xmlns="http://www.w3.org/2000/svg" width="32" height="32" fill="none"><g clip-path="url(#a)"><path fill-rule="evenodd" clip-rule="evenodd" d="M26.46 26.46c6.07-6.072 6.07-15.916 0-21.987l-4.367 4.366c3.568 3.704 3.553 9.572-.065 13.19-3.618 3.619-9.486 3.634-13.19.066l-4.365 4.364c6.071 6.072 15.915 6.072 21.986 0z" fill="url(#b)"/><mask id="c" style="mask-type:alpha" maskUnits="userSpaceOnUse" x="0" y="0" width="33" height="32"><path fill-rule="evenodd" clip-rule="evenodd" d="M4.554 4.554C-.74 9.847-1.418 18.009 2.52 24.037c.28.446.42.668.5.876.187.481.214.879.093 1.38-.052.218-.185.51-.45 1.094-.888 1.95-1.08 3.4-.406 4.075 1.903 1.903 7.997-1.106 18.049-11.158C30.358 10.253 33.366 4.16 31.463 2.256c-.674-.675-2.124-.483-4.074.405-.587.267-.88.4-1.098.452-.5.12-.895.093-1.374-.091-.207-.08-.427-.218-.864-.492-6.03-3.95-14.201-3.275-19.5 2.024zm12.879 12.878c3.66-3.662 6.13-7.129 4.431-8.827-3.695-3.696-9.66-3.724-13.32-.063-3.662 3.662-3.634 9.626.062 13.321 1.698 1.699 5.165-.77 8.827-4.431z" fill="#F37"/></mask><g mask="url(#c)"><path fill-rule="evenodd" clip-rule="evenodd" d="M4.554 4.554C-.74 9.847-1.418 18.009 2.52 24.037c.28.446.42.668.5.876.187.481.214.879.093 1.38-.052.218-.185.51-.45 1.094-.888 1.95-1.08 3.4-.406 4.075 1.903 1.903 7.997-1.106 18.049-11.158C30.358 10.253 33.366 4.16 31.463 2.256c-.674-.675-2.124-.483-4.074.405-.587.267-.88.4-1.098.452-.5.12-.895.093-1.374-.091-.207-.08-.427-.218-.864-.492-6.03-3.95-14.201-3.275-19.5 2.024zm12.879 12.878c3.66-3.662 6.13-7.129 4.431-8.827-3.695-3.696-9.66-3.724-13.32-.063-3.662 3.662-3.634 9.626.062 13.321 1.698 1.699 5.165-.77 8.827-4.431z" fill="#F37"/><g filter="url(#d)"><path d="M4.885 22.594C1.65 17.634 2.206 10.92 6.557 6.564 10.912 2.202 17.63 1.647 22.586 4.9c.357.224.537.337.707.403a1.75 1.75 0 0 0 1.128.075c.18-.043.42-.153.903-.372 1.603-.73 3.85-2.299 4.64-1.51 1.212 1.214-2.435 7.521-10.696 15.792-8.261 8.27-14.561 12.156-15.773 10.943-.789-.79.778-3.276 1.507-4.88.219-.481.328-.722.371-.9.099-.413.077-.74-.077-1.136-.066-.172-.181-.354-.411-.72z" fill="#FF0"/></g></g></g><defs><radialGradient id="b" cx="0" cy="0" r="1" gradientUnits="userSpaceOnUse" gradientTransform="rotate(45 -11.194 26.46) scale(15.3414)"><stop offset=".646" stop-color="#FF0"/><stop offset="1" stop-color="#F37"/></radialGradient><clipPath id="a"><path fill="#fff" d="M0 0h149v32H0z"/></clipPath><filter id="d" x="-2.068" y="-2.066" width="37.142" height="37.398" filterUnits="userSpaceOnUse" color-interpolation-filters="sRGB"><feFlood flood-opacity="0" result="BackgroundImageFix"/><feBlend in="SourceGraphic" in2="BackgroundImageFix" result="shape"/><feGaussianBlur stdDeviation="2.441" result="effect1_foregroundBlur_977_118400"/></filter></defs></svg>